<svg aria-hidden="true" style="width:0;height:0;position:absolute;overflow:hidden" xmlns="http://www.w3.org/2000/svg"><defs><symbol id="icon-Vector-right" viewBox="0 0 18 32"><path fill="none" stroke="#f4f4f4" style="stroke:var(--color1,#f4f4f4)" stroke-linejoin="round" stroke-linecap="round" stroke-width="4.571" d="M2.286 29.714 16 16 2.286 2.286"/></symbol><symbol id="icon-menu" viewBox="0 0 32 32"><path fill="none" stroke="#f4f4f4" style="stroke:var(--color1,#f4f4f4)" stroke-linejoin="round" stroke-linecap="round" stroke-width="2.667" d="M4 16h24M4 8h24M4 24h24"/></symbol><symbol id="icon-menu-black" viewBox="0 0 32 32"><path stroke-linejoin="round" stroke-linecap="round" stroke-width="2.667" d="M4 16h24M4 8h24M4 24h24"/></symbol><symbol id="icon-x" viewBox="0 0 32 32"><path stroke-linejoin="round" stroke-linecap="round" stroke-width="2.667" d="M24 8 8 24M8 8l16 16"/></symbol><symbol id="icon-icon-heart" viewBox="0 0 32 32"><path fill="#4440f6" style="fill:var(--color2,#4440f6)" d="M32 16c0 8.837-7.163 16-16 16S0 24.837 0 16 7.163 0 16 0s16 7.163 16 16z"/><path fill="none" stroke="#f4f4f4" style="stroke:var(--color1,#f4f4f4)" stroke-linejoin="round" stroke-linecap="round" d="M22.63 10.457a4.111 4.111 0 0 0-4.496-.895 4.1 4.1 0 0 0-1.338.895l-.795.795-.795-.795a4.125 4.125 0 0 0-5.836 0 4.125 4.125 0 0 0 0 5.835l6.63 6.63 6.63-6.63a4.111 4.111 0 0 0 .895-4.496 4.116 4.116 0 0 0-.895-1.338v0z"/></symbol><symbol id="icon-icon-book" viewBox="0 0 32 32"><path fill="#4440f6" style="fill:var(--color2,#4440f6)" d="M32 16c0 8.837-7.163 16-16 16S0 24.837 0 16 7.163 0 16 0s16 7.163 16 16z"/><path fill="none" stroke="#f4f4f4" style="stroke:var(--color1,#f4f4f4)" stroke-linejoin="round" stroke-linecap="round" d="M8.5 9.25H13a3.004 3.004 0 0 1 3 3v10.5a2.25 2.25 0 0 0-2.25-2.25H8.5V9.25zM23.5 9.25H19a3.004 3.004 0 0 0-3 3v10.5a2.25 2.25 0 0 1 2.25-2.25h5.25V9.25z"/></symbol><symbol id="icon-icon-home" viewBox="0 0 32 32"><path fill="#4440f6" style="fill:var(--color2,#4440f6)" d="M32 16c0 8.837-7.163 16-16 16S0 24.837 0 16 7.163 0 16 0s16 7.163 16 16z"/><path fill="none" stroke="#f4f4f4" style="stroke:var(--color1,#f4f4f4)" stroke-linejoin="round" stroke-linecap="round" d="M9.25 13.75 16 8.5l6.75 5.25V22a1.503 1.503 0 0 1-1.5 1.5h-10.5a1.503 1.503 0 0 1-1.5-1.5v-8.25z"/><path fill="none" stroke="#f4f4f4" style="stroke:var(--color1,#f4f4f4)" stroke-linejoin="round" stroke-linecap="round" d="M13.75 23.5V16h4.5v7.5"/></symbol><symbol id="icon-Search" viewBox="0 0 32 32"><path d="M13.804 25.882c2.784-.001 5.488-.886 7.682-2.515l6.896 6.551 2.218-2.107-6.896-6.551c1.716-2.084 2.649-4.653 2.649-7.299 0-6.573-5.63-11.922-12.549-11.922S1.255 7.387 1.255 13.961c0 6.573 5.63 11.922 12.549 11.922zm0-20.863c5.191 0 9.412 4.01 9.412 8.941s-4.221 8.941-9.412 8.941c-5.191 0-9.412-4.01-9.412-8.941s4.221-8.941 9.412-8.941z"/></symbol><symbol id="icon-Calendar" viewBox="0 0 32 32"><path d="M23.407 4.444h5.926a1.478 1.478 0 0 1 1.481 1.482V29.63a1.478 1.478 0 0 1-1.481 1.481H2.666a1.482 1.482 0 0 1-1.482-1.481V5.926a1.482 1.482 0 0 1 1.482-1.482h5.926V1.481h2.963v2.963h8.889V1.481h2.963v2.963zm4.445 11.852H4.148v11.852h23.704V16.296zm-7.408-8.889h-8.889v2.963H8.592V7.407H4.148v5.926h23.704V7.407h-4.444v2.963h-2.963V7.407zM7.111 19.259h2.963v2.963H7.111v-2.963zm7.407 0h2.963v2.963h-2.963v-2.963zm7.408 0h2.963v2.963h-2.963v-2.963z"/></symbol><symbol id="icon-Vector-Down" viewBox="0 0 32 32"><path d="M3.76 6.857 0 10.336l16 14.806 16-14.806-3.76-3.479L16 18.159 3.76 6.857z"/></symbol><symbol id="icon-Vector-Up" viewBox="0 0 32 32"><path d="M3.76 25.143 0 21.664 16 6.858l16 14.806-3.76 3.479L16 13.841 3.76 25.143z"/></symbol><symbol id="icon-Heart" viewBox="0 0 32 32"><path fill="none" stroke="#4440f7" style="stroke:var(--color3,#4440f7)" stroke-linejoin="round" stroke-linecap="round" stroke-width="2" d="M9.333 4c-3.681 0-6.667 2.955-6.667 6.6 0 2.943 1.167 9.927 12.651 16.987a1.316 1.316 0 0 0 1.366 0c11.484-7.06 12.651-14.044 12.651-16.987 0-3.645-2.985-6.6-6.667-6.6S16 8 16 8s-2.985-4-6.667-4z"/></symbol><symbol id="icon-Vector-9" viewBox="0 0 32 32"><path fill="#4b48da" style="fill:var(--color4,#4b48da)" d="M8.381 2.286C4.174 2.286.762 5.663.762 9.829c0 3.363 1.333 11.345 14.458 19.413a1.501 1.501 0 0 0 1.56 0c13.125-8.069 14.458-16.05 14.458-19.413 0-4.166-3.412-7.543-7.619-7.543S16 6.857 16 6.857s-3.412-4.571-7.619-4.571z"/></symbol><symbol id="icon-Sun" viewBox="0 0 32 32"><path stroke-linejoin="round" stroke-linecap="round" stroke-width="2.286" d="M16 1.778v2.586m0 23.272v2.586M5.943 5.943l1.836 1.836m16.445 16.445 1.836 1.836M1.778 16h2.586m23.272 0h2.586M5.943 26.059l1.836-1.836M24.222 7.778l1.836-1.836M22.466 16a6.465 6.465 0 0 1-12.93 0 6.465 6.465 0 0 1 12.93 0z"/></symbol><symbol id="icon-Moon" viewBox="0 0 32 32"><path stroke-linejoin="round" stroke-linecap="round" stroke-width="2.526" d="M29.263 17.164c-.646 6.779-6.311 12.04-13.205 12.04-7.324 0-13.261-5.937-13.261-13.261 0-6.894 5.26-12.559 11.986-13.201l.053-.004a10.24 10.24 0 0 0-2.019 6.13c0 5.697 4.619 10.316 10.316 10.316 2.308 0 4.439-.758 6.158-2.038l-.027.02z"/></symbol><symbol id="icon-marker-place" viewBox="0 0 24 32"><path fill="#fff" style="fill:var(--color1,#fff)" d="M12.16.88A11.894 11.894 0 0 0 .28 12.76a11.76 11.76 0 0 0 2.393 7.128s.324.427.377.488l9.11 10.744 9.114-10.749c.047-.057.373-.483.373-.483l.001-.003a11.757 11.757 0 0 0 2.392-7.125A11.894 11.894 0 0 0 12.16.88zm0 16.2a4.317 4.317 0 0 1-3.991-2.667 4.318 4.318 0 0 1 3.148-5.89 4.317 4.317 0 0 1 4.435 1.837 4.317 4.317 0 0 1-.539 5.453 4.328 4.328 0 0 1-3.053 1.267z"/></symbol><symbol id="icon-menu" viewBox="0 0 32 32"><path stroke-linejoin="round" stroke-linecap="round" stroke-width="2.667" d="M4 16h24M4 8h24M4 24h24"/></symbol><symbol id="icon-menu-black" viewBox="0 0 32 32"><path fill="none" stroke="#f4f4f4" style="stroke:var(--color1,#000)" stroke-linejoin="round" stroke-linecap="round" stroke-width="2.667" d="M4 16h24M4 8h24M4 24h24"/></symbol><symbol id="icon-left" viewBox="0 0 18 32"><path d="m6.464 16 11.314 11.314-3.232 3.232L0 16 14.546 1.454l3.232 3.232L6.464 16z"/></symbol><symbol id="icon-right" viewBox="0 0 19 32"><path d="M11.817 16 .503 4.686l3.232-3.232L18.281 16 3.735 30.546.503 27.314 11.817 16z"/></symbol></defs></svg>