<svg aria-hidden="true" style="position: absolute; width: 0; height: 0; overflow: hidden;" version="1.1" xmlns="http://www.w3.org/2000/svg" xmlns:xlink="http://www.w3.org/1999/xlink">
<defs>
<symbol id="icon-Vector-right" viewBox="0 0 18 32">
<path fill="none" stroke="#f4f4f4" style="stroke: var(--color1, #f4f4f4)" stroke-linejoin="round" stroke-linecap="round" stroke-miterlimit="4" stroke-width="4.5714" d="M2.286 29.714l13.714-13.714-13.714-13.714"></path>
</symbol>
<symbol id="icon-menu" viewBox="0 0 32 32">
<path fill="none" stroke="#f4f4f4" style="stroke: var(--color1, #f4f4f4)" stroke-linejoin="round" stroke-linecap="round" stroke-miterlimit="4" stroke-width="2.6667" d="M4 16h24"></path>
<path fill="none" stroke="#f4f4f4" style="stroke: var(--color1, #f4f4f4)" stroke-linejoin="round" stroke-linecap="round" stroke-miterlimit="4" stroke-width="2.6667" d="M4 8h24"></path>
<path fill="none" stroke="#f4f4f4" style="stroke: var(--color1, #f4f4f4)" stroke-linejoin="round" stroke-linecap="round" stroke-miterlimit="4" stroke-width="2.6667" d="M4 24h24"></path>
</symbol>
<symbol id="icon-menu-black" viewBox="0 0 32 32">
<path stroke-linejoin="round" stroke-linecap="round" stroke-miterlimit="4" stroke-width="2.6667" d="M4 16h24"></path>
<path stroke-linejoin="round" stroke-linecap="round" stroke-miterlimit="4" stroke-width="2.6667" d="M4 8h24"></path>
<path stroke-linejoin="round" stroke-linecap="round" stroke-miterlimit="4" stroke-width="2.6667" d="M4 24h24"></path>
</symbol>
<symbol id="icon-x" viewBox="0 0 32 32">
<path stroke-linejoin="round" stroke-linecap="round" stroke-miterlimit="4" stroke-width="2.6667" d="M24 8l-16 16"></path>
<path stroke-linejoin="round" stroke-linecap="round" stroke-miterlimit="4" stroke-width="2.6667" d="M8 8l16 16"></path>
</symbol>
<symbol id="icon-icon-heart" viewBox="0 0 32 32">
<path fill="#4440f6" style="fill: var(--color2, #4440f6)" d="M32 16c0 8.837-7.163 16-16 16s-16-7.163-16-16c0-8.837 7.163-16 16-16s16 7.163 16 16z"></path>
<path fill="none" stroke="#f4f4f4" style="stroke: var(--color1, #f4f4f4)" stroke-linejoin="round" stroke-linecap="round" stroke-miterlimit="4" stroke-width="1" d="M22.63 10.457c-0.383-0.383-0.838-0.687-1.338-0.895s-1.037-0.314-1.579-0.314c-0.542 0-1.078 0.107-1.579 0.314s-0.955 0.511-1.338 0.895l-0.795 0.795-0.795-0.795c-0.774-0.774-1.823-1.208-2.918-1.208s-2.144 0.435-2.918 1.208c-0.774 0.774-1.208 1.823-1.208 2.918s0.435 2.144 1.208 2.917l6.63 6.63 6.63-6.63c0.383-0.383 0.687-0.838 0.895-1.338s0.314-1.037 0.314-1.579c0-0.542-0.107-1.078-0.314-1.579s-0.512-0.955-0.895-1.338v0z"></path>
</symbol>
<symbol id="icon-icon-book" viewBox="0 0 32 32">
<path fill="#4440f6" style="fill: var(--color2, #4440f6)" d="M32 16c0 8.837-7.163 16-16 16s-16-7.163-16-16c0-8.837 7.163-16 16-16s16 7.163 16 16z"></path>
<path fill="none" stroke="#f4f4f4" style="stroke: var(--color1, #f4f4f4)" stroke-linejoin="round" stroke-linecap="round" stroke-miterlimit="4" stroke-width="1" d="M8.5 9.25h4.5c0.796 0 1.559 0.316 2.121 0.879s0.879 1.326 0.879 2.121v10.5c0-0.597-0.237-1.169-0.659-1.591s-0.994-0.659-1.591-0.659h-5.25v-11.25z"></path>
<path fill="none" stroke="#f4f4f4" style="stroke: var(--color1, #f4f4f4)" stroke-linejoin="round" stroke-linecap="round" stroke-miterlimit="4" stroke-width="1" d="M23.5 9.25h-4.5c-0.796 0-1.559 0.316-2.121 0.879s-0.879 1.326-0.879 2.121v10.5c0-0.597 0.237-1.169 0.659-1.591s0.994-0.659 1.591-0.659h5.25v-11.25z"></path>
</symbol>
<symbol id="icon-icon-home" viewBox="0 0 32 32">
<path fill="#4440f6" style="fill: var(--color2, #4440f6)" d="M32 16c0 8.837-7.163 16-16 16s-16-7.163-16-16c0-8.837 7.163-16 16-16s16 7.163 16 16z"></path>
<path fill="none" stroke="#f4f4f4" style="stroke: var(--color1, #f4f4f4)" stroke-linejoin="round" stroke-linecap="round" stroke-miterlimit="4" stroke-width="1" d="M9.25 13.75l6.75-5.25 6.75 5.25v8.25c0 0.398-0.158 0.779-0.439 1.061s-0.663 0.439-1.061 0.439h-10.5c-0.398 0-0.779-0.158-1.061-0.439s-0.439-0.663-0.439-1.061v-8.25z"></path>
<path fill="none" stroke="#f4f4f4" style="stroke: var(--color1, #f4f4f4)" stroke-linejoin="round" stroke-linecap="round" stroke-miterlimit="4" stroke-width="1" d="M13.75 23.5v-7.5h4.5v7.5"></path>
</symbol>
<symbol id="icon-Search" viewBox="0 0 32 32">
<path d="M13.804 25.882c2.784-0.001 5.488-0.886 7.682-2.515l6.896 6.551 2.218-2.107-6.896-6.551c1.716-2.084 2.649-4.653 2.649-7.299 0-6.573-5.63-11.922-12.549-11.922s-12.549 5.348-12.549 11.922c0 6.573 5.63 11.922 12.549 11.922zM13.804 5.019c5.191 0 9.412 4.010 9.412 8.941s-4.221 8.941-9.412 8.941c-5.191 0-9.412-4.010-9.412-8.941s4.221-8.941 9.412-8.941z"></path>
</symbol>
<symbol id="icon-Calendar" viewBox="0 0 32 32">

<path  d="M23.407 4.444h5.926c0.393 0 0.77 0.156 1.047 0.434s0.434 0.655 0.434 1.048v23.704c0 0.393-0.156 0.77-0.434 1.047s-0.655 0.434-1.047 0.434h-26.667c-0.393 0-0.77-0.156-1.048-0.434s-0.434-0.655-0.434-1.047v-23.704c0-0.393 0.156-0.77 0.434-1.048s0.655-0.434 1.048-0.434h5.926v-2.963h2.963v2.963h8.889v-2.963h2.963v2.963zM27.852 16.296h-23.704v11.852h23.704v-11.852zM20.444 7.407h-8.889v2.963h-2.963v-2.963h-4.444v5.926h23.704v-5.926h-4.444v2.963h-2.963v-2.963zM7.111 19.259h2.963v2.963h-2.963v-2.963zM14.518 19.259h2.963v2.963h-2.963v-2.963zM21.926 19.259h2.963v2.963h-2.963v-2.963z"></path>
</symbol>
<symbol id="icon-Vector-Down" viewBox="0 0 32 32">
<path  d="M3.76 6.857l-3.76 3.479 16 14.806 16-14.806-3.76-3.479-12.24 11.302-12.24-11.302z"></path>
</symbol>
<symbol id="icon-Vector-Up" viewBox="0 0 32 32">
<path  d="M3.76 25.143l-3.76-3.479 16-14.806 16 14.806-3.76 3.479-12.24-11.302-12.24 11.302z"></path>

</symbol>
<symbol id="icon-Heart" viewBox="0 0 32 32">
<path fill="none" stroke="#4440f7" style="stroke: var(--color3, #4440f7)" stroke-linejoin="round" stroke-linecap="round" stroke-miterlimit="4" stroke-width="2" d="M9.333 4c-3.681 0-6.667 2.955-6.667 6.6 0 2.943 1.167 9.927 12.651 16.987 0.206 0.125 0.442 0.191 0.683 0.191s0.477-0.066 0.683-0.191c11.484-7.060 12.651-14.044 12.651-16.987 0-3.645-2.985-6.6-6.667-6.6s-6.667 4-6.667 4-2.985-4-6.667-4z"></path>
</symbol>
<symbol id="icon-Vector-9" viewBox="0 0 32 32">
<path fill="#4b48da" style="fill: var(--color4, #4b48da)" d="M8.381 2.286c-4.207 0-7.619 3.377-7.619 7.543 0 3.363 1.333 11.345 14.458 19.413 0.235 0.143 0.505 0.219 0.78 0.219s0.545-0.076 0.78-0.219c13.125-8.069 14.458-16.050 14.458-19.413 0-4.166-3.412-7.543-7.619-7.543s-7.619 4.571-7.619 4.571-3.412-4.571-7.619-4.571z"></path>
</symbol>
<symbol id="icon-Sun" viewBox="0 0 32 32">

<path stroke-linejoin="round" stroke-linecap="round" stroke-miterlimit="4" stroke-width="2.2857" d="M16 1.778v2.586M16 27.636v2.586M5.943 5.943l1.836 1.836M24.224 24.224l1.836 1.836M1.778 16h2.586M27.636 16h2.586M5.943 26.059l1.836-1.836M24.222 7.778l1.836-1.836M22.466 16c0 3.57-2.894 6.465-6.465 6.465s-6.465-2.894-6.465-6.465v0c0-3.57 2.894-6.465 6.465-6.465s6.465 2.894 6.465 6.465v0z"></path>
</symbol>
<symbol id="icon-Moon" viewBox="0 0 32 32">
<path stroke-linejoin="round" stroke-linecap="round" stroke-miterlimit="4" stroke-width="2.5263" d="M29.263 17.164c-0.646 6.779-6.311 12.040-13.205 12.040-7.324 0-13.261-5.937-13.261-13.261 0-6.894 5.26-12.559 11.986-13.201l0.053-0.004c-1.261 1.691-2.019 3.822-2.019 6.13 0 5.697 4.619 10.316 10.316 10.316 2.308 0 4.439-0.758 6.158-2.038l-0.027 0.020z"></path>
</symbol>
<symbol id="icon-marker-place" viewBox="0 0 24 32">
<path fill="#fff" style="fill: var(--color1, #fff)" d="M12.16 0.88c-3.15 0.004-6.169 1.257-8.396 3.484s-3.48 5.247-3.484 8.396c-0.004 2.574 0.837 5.078 2.393 7.128 0 0 0.324 0.427 0.377 0.488l9.11 10.744 9.114-10.749c0.047-0.057 0.373-0.483 0.373-0.483l0.001-0.003c1.555-2.049 2.396-4.552 2.392-7.125-0.004-3.15-1.257-6.169-3.484-8.396s-5.247-3.48-8.396-3.484zM12.16 17.080c-0.854 0-1.69-0.253-2.4-0.728s-1.264-1.149-1.591-1.939-0.413-1.658-0.246-2.496c0.167-0.838 0.578-1.608 1.182-2.212s1.374-1.016 2.212-1.182c0.838-0.167 1.707-0.081 2.496 0.246s1.464 0.881 1.939 1.591c0.475 0.71 0.728 1.546 0.728 2.4-0.001 1.145-0.457 2.243-1.267 3.053s-1.908 1.265-3.053 1.267z"></path>
</symbol>
<symbol id="icon-menu" viewBox="0 0 32 32">
<path stroke-linejoin="round" stroke-linecap="round" stroke-miterlimit="4" stroke-width="2.6667" d="M4 16h24"></path>
<path stroke-linejoin="round" stroke-linecap="round" stroke-miterlimit="4" stroke-width="2.6667" d="M4 8h24"></path>
<path stroke-linejoin="round" stroke-linecap="round" stroke-miterlimit="4" stroke-width="2.6667" d="M4 24h24"></path>
</symbol>
<symbol id="icon-menu-black" viewBox="0 0 32 32">
<path fill="none" stroke="#f4f4f4" style="stroke: var(--color1, #000)" stroke-linejoin="round" stroke-linecap="round" stroke-miterlimit="4" stroke-width="2.6667" d="M4 16h24"></path>
<path fill="none" stroke="#f4f4f4" style="stroke: var(--color1, #000)" stroke-linejoin="round" stroke-linecap="round" stroke-miterlimit="4" stroke-width="2.6667" d="M4 8h24"></path>
<path fill="none" stroke="#f4f4f4" style="stroke: var(--color1, #000)" stroke-linejoin="round" stroke-linecap="round" stroke-miterlimit="4" stroke-width="2.6667" d="M4 24h24"></path>
</symbol>
<symbol id="icon-left" viewBox="0 0 18 32">
<path d="M6.464 16l11.314 11.314-3.232 3.232-14.546-14.546 14.546-14.546 3.232 3.232-11.314 11.314z"></path>
</symbol>
<symbol id="icon-right" viewBox="0 0 19 32">
<path d="M11.817 16l-11.314-11.314 3.232-3.232 14.546 14.546-14.546 14.546-3.232-3.232 11.314-11.314z"></path>
</symbol>
<symbol id="icon-user" viewBox="0 0 32 32">
<path d="M18 22.082v-1.649c2.203-1.241 4-4.337 4-7.432 0-4.971 0-9-6-9s-6 4.029-6 9c0 3.096 1.797 6.191 4 7.432v1.649c-6.784 0.555-12 3.888-12 7.918h28c0-4.030-5.216-7.364-12-7.918z"></path>
</symbol>
</defs>
</svg>
